<svg width="16" height="16" viewBox="0 0 16 16" fill="none" xmlns="http://www.w3.org/2000/svg">
<g id="Frame">
<path id="Vector" d="M14.526 0.667969H1.47268C1.02602 0.667969 0.666016 1.02797 0.666016 1.47464V14.5213C0.666016 14.9746 1.02602 15.3346 1.47268 15.3346H8.49935V9.6613H6.59935V7.4413H8.50602V5.80797C8.50602 3.91464 9.66602 2.8813 11.3527 2.8813C11.9193 2.8813 12.4927 2.90797 13.0593 2.96797V4.94797H11.8927C10.9727 4.94797 10.7927 5.3813 10.7927 6.02797V7.4413H12.9927L12.706 9.6613H10.7793V15.3346H14.5194C14.966 15.3346 15.326 14.9746 15.326 14.528V1.47464C15.3327 1.02797 14.9727 0.667969 14.526 0.667969Z" fill="white"/>
</g>
</svg>
