<svg width="16" height="16" viewBox="0 0 16 16" fill="none" xmlns="http://www.w3.org/2000/svg">
<g id="Frame">
<g id="Group">
<path id="Vector" d="M14.0999 1.89986C12.6999 0.493196 10.8199 0.666529 7.99986 0.666529C5.35986 0.666529 3.3332 0.459863 1.89986 1.89986C0.493196 3.29986 0.666529 5.17986 0.666529 7.99986C0.666529 10.6332 0.459863 12.6665 1.89986 14.0999C3.29986 15.5065 5.17986 15.3332 7.99986 15.3332C10.6399 15.3332 12.6665 15.5399 14.0999 14.0999C15.4999 12.6999 15.3332 10.8199 15.3332 7.99986C15.3332 5.12653 15.4932 3.28653 14.0999 1.89986ZM13.1665 13.1665C12.2532 14.0799 11.0465 14.0132 7.99986 14.0132C5.13986 14.0132 3.7732 14.1132 2.8332 13.1665C1.8732 12.2065 1.98653 10.8265 1.98653 7.99986C1.98653 5.17986 1.88653 3.77986 2.8332 2.8332C3.7732 1.8932 5.06653 1.98653 7.99986 1.98653C10.8199 1.98653 12.2199 1.88653 13.1665 2.8332C14.0865 3.7532 14.0132 4.97986 14.0132 7.99986C14.0132 10.8265 14.1132 12.2265 13.1665 13.1665Z" fill="white"/>
<path id="Vector_2" d="M7.99909 4.2337C7.00002 4.23379 6.0419 4.63075 5.33552 5.33726C4.62913 6.04377 4.23233 7.00196 4.23242 8.00103C4.23251 9.0001 4.62947 9.95822 5.33599 10.6646C6.0425 11.371 7.00069 11.7678 7.99976 11.7677C8.99883 11.7676 9.95694 11.3706 10.6633 10.6641C11.3697 9.95762 11.7665 8.99944 11.7664 8.00036C11.7663 7.00129 11.3694 6.04318 10.6629 5.33679C9.95635 4.6304 8.99816 4.23361 7.99909 4.2337ZM7.99909 10.447C6.65242 10.447 5.55242 9.3537 5.55242 8.00036C5.55242 6.64703 6.64576 5.5537 7.99909 5.5537C9.35242 5.5537 10.4458 6.64703 10.4458 8.00036C10.4458 9.34703 9.34576 10.447 7.99909 10.447ZM11.9124 3.20703C11.4258 3.20703 11.0324 3.60036 11.0324 4.08703C11.0324 4.5737 11.4258 4.96703 11.9124 4.96703C12.3991 4.96703 12.7924 4.5737 12.7924 4.08703C12.7924 3.60036 12.3991 3.20703 11.9124 3.20703Z" fill="white"/>
</g>
</g>
</svg>
