<svg width="16" height="16" viewBox="0 0 16 16" fill="none" xmlns="http://www.w3.org/2000/svg">
<g id="Frame">
<path id="Vector" d="M14.246 0.667969H1.74602C1.15268 0.667969 0.666016 1.1413 0.666016 1.7213V14.2746C0.666016 14.8613 1.15268 15.3346 1.74602 15.3346H14.246C14.846 15.3346 15.3327 14.8613 15.3327 14.2746V1.7213C15.3327 1.1413 14.846 0.667969 14.246 0.667969ZM5.01935 13.168H2.83935V6.16797H5.01935V13.168ZM3.92602 5.20797C3.23268 5.20797 2.66602 4.6413 2.66602 3.94797C2.66602 3.25464 3.22602 2.68797 3.92602 2.68797C4.61935 2.68797 5.18602 3.25464 5.18602 3.94797C5.19268 4.6413 4.62602 5.20797 3.92602 5.20797ZM13.166 13.168H10.9927V9.76797C10.9927 8.95464 10.9793 7.91464 9.85935 7.91464C8.72602 7.91464 8.55268 8.8013 8.55268 9.71464V13.1746H6.37935V6.17464H8.46602V7.12797H8.49268C8.78602 6.57464 9.49268 5.99464 10.5527 5.99464C12.7527 5.99464 13.1593 7.4413 13.1593 9.32797V13.168H13.166Z" fill="white"/>
</g>
</svg>
