<svg width="16" height="16" viewBox="0 0 16 16" fill="none" xmlns="http://www.w3.org/2000/svg">
<g id="Frame">
<path id="Vector" d="M15.3327 8.0013C15.3327 8.0013 15.3327 5.43464 15.026 4.2813C14.8594 3.64797 14.3593 3.14797 13.7327 2.97464C12.586 2.66797 7.99935 2.66797 7.99935 2.66797C7.99935 2.66797 3.41268 2.66797 2.26602 2.97464C1.63268 3.1413 1.13935 3.64797 0.972682 4.2813C0.666016 5.43464 0.666016 8.0013 0.666016 8.0013C0.666016 8.0013 0.692682 10.568 0.999349 11.7213C1.16602 12.3546 1.66602 12.8546 2.29935 13.028C3.43935 13.3346 8.02602 13.3346 8.02602 13.3346C8.02602 13.3346 12.6127 13.3346 13.7593 13.028C14.3927 12.8613 14.886 12.3546 15.0527 11.7213C15.3593 10.568 15.3327 8.0013 15.3327 8.0013ZM6.66602 10.1813V5.8213L10.3327 8.0013L6.66602 10.1813Z" fill="white"/>
</g>
</svg>
