<svg width="15" height="11" viewBox="0 0 15 11" fill="none" xmlns="http://www.w3.org/2000/svg">
<path id="Arrow 1" d="M0.86162 4.89992C0.516445 4.90125 0.237696 5.18214 0.239018 5.52731C0.24034 5.87249 0.521232 6.15124 0.866407 6.14991L0.86162 4.89992ZM14.4436 5.91486C14.6868 5.66984 14.6852 5.27412 14.4402 5.03098L10.4476 1.06877C10.2025 0.825624 9.80682 0.827139 9.56368 1.07215C9.32054 1.31716 9.32205 1.71289 9.56706 1.95603L13.1161 5.47799L9.59414 9.02704C9.351 9.27205 9.35252 9.66778 9.59753 9.91092C9.84254 10.1541 10.2383 10.1525 10.4814 9.90754L14.4436 5.91486ZM0.866407 6.14991L14.0024 6.0996L13.9976 4.84961L0.86162 4.89992L0.866407 6.14991Z" fill="#555555"/>
</svg>
