<svg width="273" height="80" viewBox="0 0 273 80" fill="none" xmlns="http://www.w3.org/2000/svg">
<path d="M263.013 61.0622C258.037 54.5652 252.936 49.795 250.405 47.9863C247.179 45.6807 244.228 44.1015 241.285 42.8623C238.38 41.6391 234.798 40.4898 231.673 40.0992C227.129 39.5313 223.487 39.7575 220.525 41.7318C218.202 43.2806 215.519 48.7125 218.057 52.0971C220.596 55.4816 225.659 56.7367 228.916 54.0714C234.346 49.6292 233.852 45.1869 231.712 40.5013C229.341 35.3114 227.263 31.6872 223.487 27.9114C219.365 23.7898 215.096 21.4949 208.375 19.4994C205.234 18.7412 194.365 14.5847 184 19.027" stroke="#FF9452" stroke-width="2" stroke-linecap="round"/>
<path d="M264.123 51.4349C264.375 53.7062 265.361 55.984 265.628 58.3101C265.887 60.5704 265.857 62.8682 266.341 65.0945C266.552 66.0655 266.043 65.4968 265.472 65.2113C263.7 64.3253 261.644 63.5454 259.738 63.032C256.684 62.2091 253.317 61.9984 250.346 61.0083" stroke="#FF9452" stroke-width="2" stroke-linecap="round"/>
<path d="M3.64911 29.594C3.34911 29.594 3.10311 29.51 2.91111 29.342C2.73111 29.186 2.64111 29.012 2.64111 28.82C2.64111 28.604 2.67111 28.442 2.73111 28.334C2.80311 28.214 2.95311 28.13 3.18111 28.082C3.74511 27.95 4.32711 27.794 4.92711 27.614C5.53911 27.422 6.10911 27.224 6.63711 27.02C7.16511 26.804 7.59111 26.594 7.91511 26.39C8.25111 26.186 8.41911 26.006 8.41911 25.85C8.41911 25.706 8.28711 25.568 8.02311 25.436C7.75911 25.292 7.42311 25.136 7.01511 24.968C6.60711 24.8 6.16911 24.614 5.70111 24.41C5.23311 24.206 4.79511 23.972 4.38711 23.708C3.97911 23.444 3.64311 23.144 3.37911 22.808C3.11511 22.46 2.98311 22.064 2.98311 21.62C2.98311 20.924 3.15111 20.276 3.48711 19.676C3.83511 19.064 4.28511 18.5 4.83711 17.984C5.38911 17.468 5.99511 16.994 6.65511 16.562C7.32711 16.118 7.98711 15.728 8.63511 15.392C9.29511 15.044 9.88311 14.738 10.3991 14.474C10.5671 14.378 10.7291 14.312 10.8851 14.276C11.0411 14.24 11.1791 14.222 11.2991 14.222C11.6471 14.222 11.8991 14.3 12.0551 14.456C12.2111 14.612 12.2891 14.792 12.2891 14.996C12.2891 15.164 12.1991 15.362 12.0191 15.59C11.8391 15.806 11.5811 15.998 11.2451 16.166C10.9091 16.334 10.5071 16.418 10.0391 16.418H9.89511C9.48711 16.634 9.04311 16.892 8.56311 17.192C8.08311 17.492 7.60911 17.822 7.14111 18.182C6.67311 18.542 6.24111 18.914 5.84511 19.298C5.46111 19.67 5.14911 20.03 4.90911 20.378C4.68111 20.726 4.56711 21.044 4.56711 21.332C4.56711 21.68 4.69911 21.992 4.96311 22.268C5.22711 22.544 5.56311 22.79 5.97111 23.006C6.39111 23.222 6.82911 23.432 7.28511 23.636C7.75311 23.84 8.19111 24.05 8.59911 24.266C9.01911 24.47 9.36111 24.698 9.62512 24.95C9.88911 25.19 10.0211 25.472 10.0211 25.796C10.0211 26.168 9.88911 26.522 9.62512 26.858C9.37311 27.194 9.03711 27.506 8.61711 27.794C8.19711 28.07 7.73511 28.322 7.23111 28.55C6.73911 28.766 6.25311 28.952 5.77311 29.108C5.29311 29.264 4.86111 29.384 4.47711 29.468C4.10511 29.552 3.82911 29.594 3.64911 29.594ZM20.1756 21.242C20.1756 21.626 20.0556 22.004 19.8156 22.376C19.5756 22.736 19.2576 23.084 18.8616 23.42C18.4656 23.744 18.0276 24.05 17.5476 24.338C17.0676 24.626 16.5876 24.878 16.1076 25.094C15.6276 25.31 15.1896 25.484 14.7936 25.616C14.6976 26.084 14.6496 26.498 14.6496 26.858C14.6496 27.086 14.7036 27.248 14.8116 27.344C14.9196 27.44 15.0876 27.488 15.3156 27.488C15.8196 27.488 16.3536 27.398 16.9176 27.218C17.4816 27.038 18.0576 26.804 18.6456 26.516C19.2336 26.228 19.7976 25.922 20.3376 25.598C20.8776 25.274 21.3696 24.968 21.8136 24.68C22.2696 24.392 22.6476 24.158 22.9476 23.978C23.2476 23.798 23.4456 23.708 23.5416 23.708C23.6856 23.708 23.7936 23.756 23.8656 23.852C23.9496 23.936 23.9916 24.038 23.9916 24.158C23.9916 24.254 23.8416 24.44 23.5416 24.716C23.2536 24.992 22.8636 25.316 22.3716 25.688C21.8796 26.048 21.3276 26.42 20.7156 26.804C20.1036 27.188 19.4676 27.548 18.8076 27.884C18.1596 28.22 17.5296 28.49 16.9176 28.694C16.3176 28.898 15.7776 29 15.2976 29C14.6736 29 14.1876 28.766 13.8396 28.298C13.4916 27.83 13.3176 27.104 13.3176 26.12C13.3176 25.46 13.4016 24.794 13.5696 24.122C13.7496 23.45 13.9896 22.808 14.2896 22.196C14.6016 21.572 14.9436 21.02 15.3156 20.54C15.6996 20.048 16.1016 19.664 16.5216 19.388C16.9416 19.1 17.3496 18.956 17.7456 18.956C18.5016 18.956 19.0956 19.166 19.5276 19.586C19.9596 20.006 20.1756 20.558 20.1756 21.242ZM15.1716 24.23C15.5436 24.002 15.9276 23.762 16.3236 23.51C16.7196 23.258 17.0856 23 17.4216 22.736C17.7576 22.472 18.0276 22.196 18.2316 21.908C18.4476 21.608 18.5556 21.302 18.5556 20.99C18.5556 20.546 18.3156 20.324 17.8356 20.324C17.5356 20.324 17.2176 20.516 16.8816 20.9C16.5576 21.272 16.2456 21.758 15.9456 22.358C15.6456 22.958 15.3876 23.582 15.1716 24.23ZM30.5892 29.81C30.3252 29.81 30.1212 29.732 29.9772 29.576C29.8332 29.432 29.7612 29.066 29.7612 28.478C29.7612 27.938 29.8572 27.236 30.0492 26.372C30.2412 25.496 30.4992 24.524 30.8232 23.456C31.1472 22.388 31.5132 21.284 31.9212 20.144C32.3292 18.992 32.7552 17.864 33.1992 16.76C33.6552 15.644 34.0932 14.624 34.5132 13.7C34.6692 13.364 34.8312 13.13 34.9992 12.998C35.1672 12.866 35.3652 12.8 35.5932 12.8C35.7492 12.8 35.8812 12.848 35.9892 12.944C36.1092 13.028 36.1692 13.172 36.1692 13.376C36.1692 13.448 36.0912 13.682 35.9352 14.078C35.7912 14.474 35.5872 14.996 35.3232 15.644C35.0712 16.292 34.7892 17.018 34.4772 17.822C34.1652 18.626 33.8472 19.472 33.5232 20.36C33.1992 21.248 32.8932 22.142 32.6052 23.042C32.3172 23.93 32.0712 24.782 31.8672 25.598C31.6632 26.414 31.5252 27.146 31.4532 27.794C31.7412 27.446 32.0712 27.002 32.4432 26.462C32.8152 25.922 33.2112 25.34 33.6312 24.716C34.0512 24.092 34.4772 23.474 34.9092 22.862C35.3412 22.25 35.7672 21.692 36.1872 21.188C36.6072 20.684 36.9972 20.282 37.3572 19.982C37.7292 19.67 38.0532 19.514 38.3292 19.514C38.7852 19.514 39.1512 19.658 39.4272 19.946C39.7152 20.222 39.8592 20.678 39.8592 21.314C39.8592 21.674 39.7872 22.106 39.6432 22.61C39.5112 23.114 39.3552 23.642 39.1752 24.194C38.9952 24.746 38.8332 25.274 38.6892 25.778C38.5572 26.282 38.4912 26.714 38.4912 27.074C38.4912 27.566 38.6772 27.812 39.0492 27.812C39.6252 27.812 40.2012 27.686 40.7772 27.434C41.3652 27.182 41.9232 26.87 42.4512 26.498C42.9792 26.114 43.4652 25.73 43.9092 25.346C44.3532 24.95 44.7312 24.614 45.0432 24.338C45.3792 24.038 45.6612 23.888 45.8892 23.888C46.1772 23.888 46.3212 24.038 46.3212 24.338C46.3212 24.422 46.3032 24.518 46.2672 24.626C46.2312 24.734 46.1352 24.872 45.9792 25.04C45.7872 25.256 45.5112 25.538 45.1512 25.886C44.8032 26.234 44.3952 26.606 43.9272 27.002C43.4712 27.398 42.9732 27.77 42.4332 28.118C41.9052 28.466 41.3592 28.754 40.7952 28.982C40.2432 29.198 39.7032 29.306 39.1752 29.306C38.4552 29.306 37.8972 29.102 37.5012 28.694C37.1172 28.274 36.9252 27.698 36.9252 26.966C36.9252 26.51 36.9972 25.958 37.1412 25.31C37.2852 24.662 37.4652 23.978 37.6812 23.258C37.9092 22.526 38.1372 21.812 38.3652 21.116C37.9812 21.38 37.5612 21.776 37.1052 22.304C36.6612 22.82 36.1932 23.408 35.7012 24.068C35.2092 24.716 34.7172 25.376 34.2252 26.048C33.7452 26.72 33.2772 27.344 32.8212 27.92C32.3772 28.484 31.9632 28.94 31.5792 29.288C31.1952 29.636 30.8652 29.81 30.5892 29.81ZM51.8613 21.242C51.8613 21.626 51.7413 22.004 51.5013 22.376C51.2613 22.736 50.9433 23.084 50.5473 23.42C50.1513 23.744 49.7133 24.05 49.2333 24.338C48.7533 24.626 48.2733 24.878 47.7933 25.094C47.3133 25.31 46.8753 25.484 46.4793 25.616C46.3833 26.084 46.3353 26.498 46.3353 26.858C46.3353 27.086 46.3893 27.248 46.4973 27.344C46.6053 27.44 46.7733 27.488 47.0013 27.488C47.5053 27.488 48.0393 27.398 48.6033 27.218C49.1673 27.038 49.7433 26.804 50.3313 26.516C50.9193 26.228 51.4833 25.922 52.0233 25.598C52.5633 25.274 53.0553 24.968 53.4993 24.68C53.9553 24.392 54.3333 24.158 54.6333 23.978C54.9333 23.798 55.1313 23.708 55.2273 23.708C55.3713 23.708 55.4793 23.756 55.5513 23.852C55.6353 23.936 55.6773 24.038 55.6773 24.158C55.6773 24.254 55.5273 24.44 55.2273 24.716C54.9393 24.992 54.5493 25.316 54.0573 25.688C53.5653 26.048 53.0133 26.42 52.4013 26.804C51.7893 27.188 51.1533 27.548 50.4933 27.884C49.8453 28.22 49.2153 28.49 48.6033 28.694C48.0033 28.898 47.4633 29 46.9833 29C46.3593 29 45.8733 28.766 45.5253 28.298C45.1773 27.83 45.0033 27.104 45.0033 26.12C45.0033 25.46 45.0873 24.794 45.2553 24.122C45.4353 23.45 45.6753 22.808 45.9753 22.196C46.2873 21.572 46.6293 21.02 47.0013 20.54C47.3853 20.048 47.7873 19.664 48.2073 19.388C48.6273 19.1 49.0353 18.956 49.4313 18.956C50.1873 18.956 50.7813 19.166 51.2133 19.586C51.6453 20.006 51.8613 20.558 51.8613 21.242ZM46.8573 24.23C47.2293 24.002 47.6133 23.762 48.0093 23.51C48.4053 23.258 48.7713 23 49.1073 22.736C49.4433 22.472 49.7133 22.196 49.9173 21.908C50.1333 21.608 50.2413 21.302 50.2413 20.99C50.2413 20.546 50.0013 20.324 49.5213 20.324C49.2213 20.324 48.9033 20.516 48.5673 20.9C48.2433 21.272 47.9313 21.758 47.6313 22.358C47.3313 22.958 47.0733 23.582 46.8573 24.23ZM57.4293 29.72C56.5053 29.72 55.7793 29.42 55.2513 28.82C54.7353 28.208 54.4773 27.356 54.4773 26.264C54.4773 25.592 54.5673 24.806 54.7473 23.906C54.9393 22.994 55.1793 22.034 55.4673 21.026C55.7673 20.006 56.0913 18.998 56.4393 18.002C56.7873 17.006 57.1233 16.082 57.4473 15.23C57.7833 14.366 58.0773 13.646 58.3293 13.07C58.4733 12.746 58.6773 12.584 58.9413 12.584C59.3013 12.584 59.4813 12.806 59.4813 13.25C59.4813 13.394 59.4153 13.688 59.2833 14.132C59.1513 14.576 58.9773 15.128 58.7613 15.788C58.5453 16.436 58.3113 17.156 58.0593 17.948C57.8073 18.74 57.5493 19.556 57.2853 20.396C57.0333 21.224 56.7993 22.046 56.5833 22.862C56.3673 23.666 56.1933 24.422 56.0613 25.13C55.9293 25.838 55.8633 26.444 55.8633 26.948C55.8633 27.272 55.9473 27.53 56.1153 27.722C56.2953 27.902 56.5353 27.992 56.8353 27.992C57.3873 27.992 57.9393 27.884 58.4913 27.668C59.0553 27.44 59.5953 27.164 60.1113 26.84C60.6273 26.504 61.0953 26.174 61.5153 25.85C61.9473 25.514 62.3133 25.238 62.6133 25.022C62.9133 24.794 63.1233 24.68 63.2433 24.68C63.5073 24.68 63.6393 24.824 63.6393 25.112C63.6393 25.208 63.5433 25.388 63.3513 25.652C63.1593 25.904 62.9013 26.204 62.5773 26.552C62.2533 26.9 61.8753 27.26 61.4433 27.632C61.0233 27.992 60.5793 28.334 60.1113 28.658C59.6553 28.97 59.1933 29.222 58.7253 29.414C58.2693 29.618 57.8373 29.72 57.4293 29.72ZM69.6335 21.242C69.6335 21.626 69.5135 22.004 69.2735 22.376C69.0335 22.736 68.7155 23.084 68.3195 23.42C67.9235 23.744 67.4855 24.05 67.0055 24.338C66.5255 24.626 66.0455 24.878 65.5655 25.094C65.0855 25.31 64.6475 25.484 64.2515 25.616C64.1555 26.084 64.1075 26.498 64.1075 26.858C64.1075 27.086 64.1615 27.248 64.2695 27.344C64.3775 27.44 64.5455 27.488 64.7735 27.488C65.2775 27.488 65.8115 27.398 66.3755 27.218C66.9395 27.038 67.5155 26.804 68.1035 26.516C68.6915 26.228 69.2555 25.922 69.7955 25.598C70.3355 25.274 70.8275 24.968 71.2715 24.68C71.7275 24.392 72.1055 24.158 72.4055 23.978C72.7055 23.798 72.9035 23.708 72.9995 23.708C73.1435 23.708 73.2515 23.756 73.3235 23.852C73.4075 23.936 73.4495 24.038 73.4495 24.158C73.4495 24.254 73.2995 24.44 72.9995 24.716C72.7115 24.992 72.3215 25.316 71.8295 25.688C71.3375 26.048 70.7855 26.42 70.1735 26.804C69.5615 27.188 68.9255 27.548 68.2655 27.884C67.6175 28.22 66.9875 28.49 66.3755 28.694C65.7755 28.898 65.2355 29 64.7555 29C64.1315 29 63.6455 28.766 63.2975 28.298C62.9495 27.83 62.7755 27.104 62.7755 26.12C62.7755 25.46 62.8595 24.794 63.0275 24.122C63.2075 23.45 63.4475 22.808 63.7475 22.196C64.0595 21.572 64.4015 21.02 64.7735 20.54C65.1575 20.048 65.5595 19.664 65.9795 19.388C66.3995 19.1 66.8075 18.956 67.2035 18.956C67.9595 18.956 68.5535 19.166 68.9855 19.586C69.4175 20.006 69.6335 20.558 69.6335 21.242ZM64.6295 24.23C65.0015 24.002 65.3855 23.762 65.7815 23.51C66.1775 23.258 66.5435 23 66.8795 22.736C67.2155 22.472 67.4855 22.196 67.6895 21.908C67.9055 21.608 68.0135 21.302 68.0135 20.99C68.0135 20.546 67.7735 20.324 67.2935 20.324C66.9935 20.324 66.6755 20.516 66.3395 20.9C66.0155 21.272 65.7035 21.758 65.4035 22.358C65.1035 22.958 64.8455 23.582 64.6295 24.23ZM85.519 29.432C85.315 29.432 85.141 29.342 84.997 29.162C84.853 28.982 84.781 28.718 84.781 28.37C84.781 27.962 84.841 27.38 84.961 26.624C85.093 25.868 85.285 24.866 85.537 23.618C85.213 24.386 84.853 25.112 84.457 25.796C84.073 26.48 83.665 27.038 83.233 27.47C82.801 27.902 82.357 28.118 81.901 28.118C81.457 28.118 81.061 27.944 80.713 27.596C80.377 27.248 80.209 26.636 80.209 25.76C80.209 25.268 80.251 24.716 80.335 24.104C80.419 23.48 80.527 22.862 80.659 22.25C80.791 21.638 80.923 21.092 81.055 20.612C81.187 20.12 81.307 19.76 81.415 19.532C81.499 19.34 81.583 19.214 81.667 19.154C81.751 19.082 81.865 19.046 82.009 19.046C82.177 19.046 82.357 19.118 82.549 19.262C82.741 19.406 82.837 19.646 82.837 19.982C82.837 20.066 82.795 20.264 82.711 20.576C82.639 20.876 82.543 21.248 82.423 21.692C82.315 22.124 82.201 22.592 82.081 23.096C81.961 23.6 81.859 24.104 81.775 24.608C81.703 25.112 81.667 25.574 81.667 25.994C81.667 26.222 81.691 26.408 81.739 26.552C81.787 26.696 81.907 26.768 82.099 26.768C82.267 26.768 82.477 26.6 82.729 26.264C82.993 25.928 83.275 25.484 83.575 24.932C83.887 24.368 84.205 23.744 84.529 23.06C84.865 22.376 85.189 21.674 85.501 20.954C85.825 20.234 86.119 19.55 86.383 18.902C86.479 18.686 86.581 18.554 86.689 18.506C86.797 18.446 86.917 18.416 87.049 18.416C87.265 18.416 87.457 18.506 87.625 18.686C87.805 18.854 87.895 19.076 87.895 19.352C87.895 19.532 87.859 19.844 87.787 20.288C87.727 20.732 87.637 21.254 87.517 21.854C87.409 22.442 87.283 23.066 87.139 23.726C87.007 24.386 86.875 25.04 86.743 25.688C86.611 26.324 86.485 26.906 86.365 27.434C86.257 27.962 86.167 28.388 86.095 28.712C86.035 29.012 85.951 29.204 85.843 29.288C85.747 29.384 85.639 29.432 85.519 29.432ZM96.6834 19.946C97.0074 19.166 97.3134 18.362 97.6014 17.534C97.9014 16.706 98.1714 15.86 98.4114 14.996C98.4834 14.756 98.5914 14.564 98.7354 14.42C98.8914 14.264 99.0714 14.186 99.2754 14.186C99.4194 14.186 99.5394 14.24 99.6354 14.348C99.7434 14.456 99.7974 14.6 99.7974 14.78C99.7974 15.008 99.7074 15.404 99.5274 15.968C99.3594 16.532 99.1434 17.246 98.8794 18.11C98.6274 18.974 98.3694 19.97 98.1054 21.098C97.8534 22.214 97.6374 23.45 97.4574 24.806C97.2894 26.162 97.2054 27.608 97.2054 29.144C97.2054 29.48 97.1334 29.756 96.9894 29.972C96.8454 30.2 96.6714 30.314 96.4674 30.314C96.3474 30.314 96.2334 30.284 96.1254 30.224C96.0174 30.164 95.9214 30.02 95.8374 29.792C95.7654 29.576 95.7054 29.234 95.6574 28.766C95.6094 28.286 95.5854 27.638 95.5854 26.822C95.5854 26.198 95.6214 25.52 95.6934 24.788C95.1414 25.784 94.5414 26.654 93.8934 27.398C93.2574 28.13 92.6394 28.694 92.0394 29.09C91.4514 29.486 90.9474 29.684 90.5274 29.684C90.0114 29.684 89.5914 29.51 89.2674 29.162C88.9554 28.826 88.7994 28.322 88.7994 27.65C88.7994 27.062 88.9374 26.456 89.2134 25.832C89.4894 25.208 89.8554 24.596 90.3114 23.996C90.7674 23.384 91.2714 22.808 91.8234 22.268C92.3754 21.728 92.9274 21.254 93.4794 20.846C94.0434 20.426 94.5654 20.102 95.0454 19.874C95.5254 19.634 95.9154 19.514 96.2154 19.514C96.3354 19.514 96.4434 19.556 96.5394 19.64C96.6354 19.724 96.6834 19.826 96.6834 19.946ZM96.4494 20.504C96.3654 20.588 96.2634 20.672 96.1434 20.756C96.0234 20.84 95.8914 20.93 95.7474 21.026C95.2194 21.398 94.6374 21.83 94.0014 22.322C93.3774 22.802 92.7774 23.33 92.2014 23.906C91.6374 24.47 91.1754 25.064 90.8154 25.688C90.4554 26.312 90.2754 26.954 90.2754 27.614C90.2754 27.902 90.4194 28.046 90.7074 28.046C91.1034 28.046 91.5354 27.86 92.0034 27.488C92.4834 27.104 92.9754 26.576 93.4794 25.904C93.9834 25.22 94.4874 24.422 94.9914 23.51C95.4954 22.586 95.9814 21.584 96.4494 20.504ZM102.732 28.55C102.552 28.55 102.372 28.418 102.192 28.154C102.024 27.89 101.898 27.518 101.814 27.038C101.73 26.534 101.652 25.958 101.58 25.31C101.508 24.662 101.448 24.026 101.4 23.402C101.352 22.778 101.316 22.226 101.292 21.746C101.268 21.266 101.256 20.942 101.256 20.774C101.256 20.15 101.352 19.688 101.544 19.388C101.748 19.076 102.006 18.92 102.318 18.92C102.534 18.92 102.69 18.98 102.786 19.1C102.882 19.208 102.93 19.46 102.93 19.856C102.93 20.12 102.936 20.462 102.948 20.882C102.96 21.302 102.978 21.758 103.002 22.25C103.026 22.838 103.05 23.462 103.074 24.122C103.098 24.77 103.116 25.412 103.128 26.048C103.416 25.568 103.746 25.034 104.118 24.446C104.502 23.858 104.892 23.258 105.288 22.646C105.684 22.022 106.068 21.428 106.44 20.864C106.812 20.3 107.142 19.808 107.43 19.388C107.718 18.968 107.94 18.662 108.096 18.47C108.3 18.23 108.486 18.062 108.654 17.966C108.834 17.87 108.99 17.822 109.122 17.822C109.302 17.822 109.446 17.888 109.554 18.02C109.674 18.152 109.734 18.338 109.734 18.578C109.734 18.722 109.704 18.884 109.644 19.064C109.596 19.232 109.506 19.406 109.374 19.586C109.05 20.078 108.66 20.654 108.204 21.314C107.748 21.974 107.274 22.658 106.782 23.366C106.29 24.074 105.81 24.764 105.342 25.436C104.874 26.096 104.466 26.678 104.118 27.182C103.506 28.094 103.044 28.55 102.732 28.55ZM110.398 29.468C109.942 29.468 109.564 29.258 109.264 28.838C108.976 28.406 108.832 27.848 108.832 27.164C108.832 26.528 108.988 25.898 109.3 25.274C109.624 24.65 110.05 24.05 110.578 23.474C111.106 22.898 111.682 22.37 112.306 21.89C112.93 21.398 113.554 20.972 114.178 20.612C114.814 20.252 115.396 19.97 115.924 19.766C116.452 19.562 116.872 19.46 117.184 19.46C117.352 19.46 117.49 19.496 117.598 19.568C117.706 19.628 117.76 19.742 117.76 19.91C117.76 20.018 117.718 20.12 117.634 20.216C117.646 20.216 117.658 20.216 117.67 20.216C117.934 20.216 118.066 20.372 118.066 20.684C118.066 20.792 118.024 21.014 117.94 21.35C117.856 21.674 117.76 22.082 117.652 22.574C117.544 23.066 117.448 23.612 117.364 24.212C117.28 24.8 117.238 25.4 117.238 26.012C117.238 26.528 117.436 26.786 117.832 26.786C118.276 26.786 118.726 26.684 119.182 26.48C119.638 26.276 120.082 26.03 120.514 25.742C120.946 25.442 121.342 25.148 121.702 24.86C122.062 24.56 122.368 24.308 122.62 24.104C122.872 23.9 123.052 23.798 123.16 23.798C123.256 23.798 123.34 23.828 123.412 23.888C123.484 23.948 123.52 24.044 123.52 24.176C123.52 24.296 123.4 24.512 123.16 24.824C122.92 25.136 122.602 25.49 122.206 25.886C121.81 26.282 121.366 26.666 120.874 27.038C120.382 27.41 119.878 27.716 119.362 27.956C118.846 28.196 118.354 28.316 117.886 28.316C117.526 28.316 117.196 28.208 116.896 27.992C116.608 27.764 116.374 27.38 116.194 26.84C116.026 26.3 115.942 25.556 115.942 24.608V24.158C115.354 25.13 114.736 26.018 114.088 26.822C113.452 27.626 112.816 28.268 112.18 28.748C111.556 29.228 110.962 29.468 110.398 29.468ZM116.842 20.756C116.782 20.78 116.698 20.816 116.59 20.864C116.038 21.116 115.462 21.428 114.862 21.8C114.274 22.172 113.698 22.586 113.134 23.042C112.582 23.498 112.084 23.972 111.64 24.464C111.196 24.956 110.842 25.454 110.578 25.958C110.314 26.462 110.182 26.954 110.182 27.434C110.182 27.59 110.212 27.71 110.272 27.794C110.344 27.878 110.464 27.92 110.632 27.92C110.872 27.92 111.184 27.77 111.568 27.47C111.952 27.158 112.372 26.75 112.828 26.246C113.296 25.742 113.764 25.184 114.232 24.572C114.7 23.96 115.144 23.342 115.564 22.718C115.996 22.094 116.368 21.518 116.68 20.99C116.728 20.906 116.782 20.828 116.842 20.756ZM125.327 29.72C124.403 29.72 123.677 29.42 123.149 28.82C122.633 28.208 122.375 27.356 122.375 26.264C122.375 25.592 122.465 24.806 122.645 23.906C122.837 22.994 123.077 22.034 123.365 21.026C123.665 20.006 123.989 18.998 124.337 18.002C124.685 17.006 125.021 16.082 125.345 15.23C125.681 14.366 125.975 13.646 126.227 13.07C126.371 12.746 126.575 12.584 126.839 12.584C127.199 12.584 127.379 12.806 127.379 13.25C127.379 13.394 127.313 13.688 127.181 14.132C127.049 14.576 126.875 15.128 126.659 15.788C126.443 16.436 126.209 17.156 125.957 17.948C125.705 18.74 125.447 19.556 125.183 20.396C124.931 21.224 124.697 22.046 124.481 22.862C124.265 23.666 124.091 24.422 123.959 25.13C123.827 25.838 123.761 26.444 123.761 26.948C123.761 27.272 123.845 27.53 124.013 27.722C124.193 27.902 124.433 27.992 124.733 27.992C125.285 27.992 125.837 27.884 126.389 27.668C126.953 27.44 127.493 27.164 128.009 26.84C128.525 26.504 128.993 26.174 129.413 25.85C129.845 25.514 130.211 25.238 130.511 25.022C130.811 24.794 131.021 24.68 131.141 24.68C131.405 24.68 131.537 24.824 131.537 25.112C131.537 25.208 131.441 25.388 131.249 25.652C131.057 25.904 130.799 26.204 130.475 26.552C130.151 26.9 129.773 27.26 129.341 27.632C128.921 27.992 128.477 28.334 128.009 28.658C127.553 28.97 127.091 29.222 126.623 29.414C126.167 29.618 125.735 29.72 125.327 29.72ZM131.285 33.752C130.361 33.752 129.683 33.662 129.251 33.482C128.819 33.302 128.603 33.062 128.603 32.762C128.603 32.57 128.663 32.414 128.783 32.294C128.915 32.174 129.077 32.114 129.269 32.114C129.473 32.114 129.767 32.144 130.151 32.204C130.535 32.276 130.913 32.312 131.285 32.312C132.521 32.312 133.535 31.946 134.327 31.214C135.119 30.482 135.725 29.36 136.145 27.848C136.565 26.324 136.847 24.38 136.991 22.016C136.631 22.748 136.223 23.48 135.767 24.212C135.323 24.932 134.843 25.592 134.327 26.192C133.823 26.78 133.301 27.254 132.761 27.614C132.221 27.974 131.687 28.154 131.159 28.154C130.655 28.154 130.283 28.028 130.043 27.776C129.815 27.524 129.701 27.11 129.701 26.534C129.701 26.018 129.845 25.472 130.133 24.896C130.421 24.308 130.805 23.72 131.285 23.132C131.765 22.544 132.293 21.986 132.869 21.458C133.445 20.918 134.021 20.444 134.597 20.036C135.185 19.616 135.731 19.286 136.235 19.046C136.739 18.806 137.147 18.686 137.459 18.686C137.771 18.686 138.011 18.794 138.179 19.01C138.347 19.226 138.431 19.634 138.431 20.234C138.431 21.638 138.383 23.006 138.287 24.338C138.203 25.658 138.029 26.888 137.765 28.028C137.501 29.168 137.105 30.164 136.577 31.016C136.061 31.88 135.371 32.552 134.507 33.032C133.643 33.512 132.569 33.752 131.285 33.752ZM136.667 20.252C136.067 20.636 135.449 21.068 134.813 21.548C134.177 22.028 133.583 22.538 133.031 23.078C132.491 23.618 132.053 24.176 131.717 24.752C131.381 25.328 131.213 25.904 131.213 26.48C131.213 26.66 131.327 26.75 131.555 26.75C131.735 26.75 131.981 26.612 132.293 26.336C132.617 26.048 132.977 25.67 133.373 25.202C133.769 24.722 134.171 24.2 134.579 23.636C134.999 23.06 135.389 22.478 135.749 21.89C136.109 21.302 136.415 20.756 136.667 20.252ZM163.349 20.648C163.349 20.792 163.139 20.954 162.719 21.134C162.311 21.314 161.759 21.5 161.063 21.692C160.367 21.872 159.587 22.052 158.723 22.232C157.871 22.412 156.995 22.574 156.095 22.718C155.771 23.834 155.453 24.962 155.141 26.102C154.829 27.23 154.559 28.292 154.331 29.288C154.283 29.48 154.187 29.618 154.043 29.702C153.911 29.798 153.761 29.846 153.593 29.846C153.401 29.846 153.239 29.792 153.107 29.684C152.975 29.588 152.909 29.456 152.909 29.288C152.909 28.988 152.969 28.556 153.089 27.992C153.209 27.428 153.365 26.774 153.557 26.03C153.761 25.286 153.971 24.494 154.187 23.654C153.659 24.47 153.077 25.238 152.441 25.958C151.805 26.678 151.139 27.314 150.443 27.866C149.747 28.418 149.033 28.85 148.301 29.162C147.581 29.474 146.855 29.63 146.123 29.63C144.983 29.63 144.149 29.33 143.621 28.73C143.093 28.13 142.829 27.23 142.829 26.03C142.829 25.358 142.907 24.686 143.063 24.014C143.231 23.33 143.453 22.682 143.729 22.07C144.017 21.458 144.335 20.918 144.683 20.45C145.031 19.97 145.391 19.592 145.763 19.316C146.147 19.04 146.513 18.902 146.861 18.902C147.533 18.902 148.031 19.088 148.355 19.46C148.679 19.832 148.841 20.294 148.841 20.846C148.841 21.422 148.709 21.968 148.445 22.484C148.181 23 147.827 23.468 147.383 23.888C146.939 24.308 146.453 24.668 145.925 24.968C145.397 25.256 144.875 25.454 144.359 25.562C144.347 25.67 144.341 25.778 144.341 25.886C144.341 26.738 144.497 27.326 144.809 27.65C145.133 27.962 145.643 28.118 146.339 28.118C147.011 28.118 147.719 27.914 148.463 27.506C149.219 27.098 149.975 26.522 150.731 25.778C151.499 25.034 152.231 24.164 152.927 23.168C152.411 23.228 151.931 23.276 151.487 23.312C151.055 23.336 150.677 23.348 150.353 23.348C150.017 23.348 149.783 23.3 149.651 23.204C149.531 23.108 149.471 22.946 149.471 22.718C149.471 22.622 149.531 22.502 149.651 22.358C149.783 22.214 149.927 22.136 150.083 22.124C150.779 22.064 151.439 21.998 152.063 21.926C152.699 21.854 153.305 21.776 153.881 21.692C154.193 21.164 154.493 20.612 154.781 20.036C155.069 19.448 155.339 18.848 155.591 18.236C155.819 17.432 156.047 16.712 156.275 16.076C156.515 15.44 156.761 14.942 157.013 14.582C157.277 14.21 157.553 14.024 157.841 14.024C157.973 14.024 158.087 14.084 158.183 14.204C158.291 14.324 158.345 14.492 158.345 14.708C158.345 14.864 158.261 15.26 158.093 15.896C157.925 16.52 157.697 17.306 157.409 18.254C157.133 19.19 156.833 20.21 156.509 21.314C158.405 21.014 159.869 20.744 160.901 20.504C161.933 20.264 162.587 20.144 162.863 20.144C163.019 20.144 163.139 20.198 163.223 20.306C163.307 20.402 163.349 20.516 163.349 20.648ZM144.557 24.212C145.025 23.96 145.475 23.636 145.907 23.24C146.339 22.844 146.693 22.43 146.969 21.998C147.257 21.566 147.401 21.164 147.401 20.792C147.401 20.456 147.245 20.288 146.933 20.288C146.681 20.288 146.399 20.48 146.087 20.864C145.787 21.236 145.499 21.722 145.223 22.322C144.947 22.922 144.725 23.552 144.557 24.212ZM162.306 24.554C162.198 24.554 162.102 24.5 162.018 24.392C161.946 24.272 161.91 24.116 161.91 23.924C161.91 23.66 161.958 23.246 162.054 22.682C162.162 22.106 162.3 21.44 162.468 20.684C162.648 19.916 162.852 19.118 163.08 18.29C163.32 17.462 163.572 16.652 163.836 15.86C164.1 15.056 164.364 14.342 164.628 13.718C164.808 13.298 165.03 13.088 165.294 13.088C165.57 13.088 165.822 13.22 166.05 13.484C166.278 13.748 166.392 14.072 166.392 14.456C166.392 14.6 166.32 14.87 166.176 15.266C166.044 15.662 165.864 16.142 165.636 16.706C165.42 17.27 165.18 17.876 164.916 18.524C164.652 19.172 164.382 19.832 164.106 20.504C163.842 21.164 163.596 21.788 163.368 22.376C163.14 22.964 162.96 23.474 162.828 23.906C162.744 24.17 162.666 24.344 162.594 24.428C162.522 24.512 162.426 24.554 162.306 24.554ZM161.244 29.918C161.064 29.918 160.878 29.816 160.686 29.612C160.494 29.408 160.398 28.994 160.398 28.37C160.398 28.022 160.512 27.764 160.74 27.596C160.968 27.416 161.262 27.326 161.622 27.326C162.234 27.326 162.54 27.644 162.54 28.28C162.54 28.58 162.468 28.85 162.324 29.09C162.18 29.342 162.006 29.54 161.802 29.684C161.61 29.84 161.424 29.918 161.244 29.918Z" fill="black"/>
</svg>
