<svg width="168" height="41" viewBox="0 0 168 41" fill="none" xmlns="http://www.w3.org/2000/svg">
<path d="M161.578 25.0411C158.931 23.0066 156.418 21.6657 155.229 21.2203C153.715 20.6525 152.386 20.3418 151.095 20.1642C149.822 19.989 148.289 19.9144 147.016 20.0904C145.166 20.3463 143.755 20.82 142.797 21.9105C142.045 22.766 141.561 25.1894 142.919 26.255C144.276 27.3205 146.403 27.2805 147.405 25.8865C149.076 23.563 148.412 21.8649 147.074 20.2447C145.592 18.4502 144.391 17.2416 142.504 16.1526C140.445 14.9638 138.521 14.5103 135.662 14.4336C134.345 14.4665 129.624 13.9762 126.009 16.8208" stroke="#FF9452" stroke-width="2" stroke-linecap="round"/>
<path d="M160.999 21.131C161.338 21.9993 161.967 22.7927 162.317 23.681C162.658 24.5442 162.889 25.4527 163.315 26.2788C163.501 26.639 163.24 26.4687 162.985 26.4165C162.193 26.2545 161.3 26.1643 160.496 26.1632C159.205 26.1614 157.856 26.4339 156.582 26.3574" stroke="#FF9452" stroke-width="2" stroke-linecap="round"/>
<path d="M2.26608 26.3965C2.06608 26.3965 1.90208 26.3405 1.77408 26.2285C1.65408 26.1245 1.59408 26.0085 1.59408 25.8805C1.59408 25.7365 1.61408 25.6285 1.65408 25.5565C1.70208 25.4765 1.80208 25.4205 1.95408 25.3885C2.33008 25.3005 2.71808 25.1965 3.11808 25.0765C3.52608 24.9485 3.90608 24.8165 4.25808 24.6805C4.61008 24.5365 4.89408 24.3965 5.11008 24.2605C5.33408 24.1245 5.44608 24.0045 5.44608 23.9005C5.44608 23.8045 5.35808 23.7125 5.18208 23.6245C5.00608 23.5285 4.78208 23.4245 4.51008 23.3125C4.23808 23.2005 3.94608 23.0765 3.63408 22.9405C3.32208 22.8045 3.03008 22.6485 2.75808 22.4725C2.48608 22.2965 2.26208 22.0965 2.08608 21.8725C1.91008 21.6405 1.82208 21.3765 1.82208 21.0805C1.82208 20.6165 1.93408 20.1845 2.15808 19.7845C2.39008 19.3765 2.69008 19.0005 3.05808 18.6565C3.42608 18.3125 3.83008 17.9965 4.27008 17.7085C4.71808 17.4125 5.15808 17.1525 5.59008 16.9285C6.03008 16.6965 6.42208 16.4925 6.76608 16.3165C6.87808 16.2525 6.98608 16.2085 7.09008 16.1845C7.19408 16.1605 7.28608 16.1485 7.36608 16.1485C7.59808 16.1485 7.76608 16.2005 7.87008 16.3045C7.97408 16.4085 8.02608 16.5285 8.02608 16.6645C8.02608 16.7765 7.96608 16.9085 7.84608 17.0605C7.72608 17.2045 7.55408 17.3325 7.33008 17.4445C7.10608 17.5565 6.83808 17.6125 6.52608 17.6125H6.43008C6.15808 17.7565 5.86208 17.9285 5.54208 18.1285C5.22208 18.3285 4.90608 18.5485 4.59408 18.7885C4.28208 19.0285 3.99408 19.2765 3.73008 19.5325C3.47408 19.7805 3.26608 20.0205 3.10608 20.2525C2.95408 20.4845 2.87808 20.6965 2.87808 20.8885C2.87808 21.1205 2.96608 21.3285 3.14208 21.5125C3.31808 21.6965 3.54208 21.8605 3.81408 22.0045C4.09408 22.1485 4.38608 22.2885 4.69008 22.4245C5.00208 22.5605 5.29408 22.7005 5.56608 22.8445C5.84608 22.9805 6.07408 23.1325 6.25008 23.3005C6.42608 23.4605 6.51408 23.6485 6.51408 23.8645C6.51408 24.1125 6.42608 24.3485 6.25008 24.5725C6.08208 24.7965 5.85808 25.0045 5.57808 25.1965C5.29808 25.3805 4.99008 25.5485 4.65408 25.7005C4.32608 25.8445 4.00208 25.9685 3.68208 26.0725C3.36208 26.1765 3.07408 26.2565 2.81808 26.3125C2.57008 26.3685 2.38608 26.3965 2.26608 26.3965ZM13.2838 20.8285C13.2838 21.0845 13.2038 21.3365 13.0438 21.5845C12.8838 21.8245 12.6718 22.0565 12.4078 22.2805C12.1438 22.4965 11.8518 22.7005 11.5318 22.8925C11.2118 23.0845 10.8918 23.2525 10.5718 23.3965C10.2518 23.5405 9.95977 23.6565 9.69577 23.7445C9.63177 24.0565 9.59977 24.3325 9.59977 24.5725C9.59977 24.7245 9.63577 24.8325 9.70777 24.8965C9.77977 24.9605 9.89177 24.9925 10.0438 24.9925C10.3798 24.9925 10.7358 24.9325 11.1118 24.8125C11.4878 24.6925 11.8718 24.5365 12.2638 24.3445C12.6558 24.1525 13.0318 23.9485 13.3918 23.7325C13.7518 23.5165 14.0798 23.3125 14.3758 23.1205C14.6798 22.9285 14.9318 22.7725 15.1318 22.6525C15.3318 22.5325 15.4638 22.4725 15.5278 22.4725C15.6238 22.4725 15.6958 22.5045 15.7438 22.5685C15.7998 22.6245 15.8278 22.6925 15.8278 22.7725C15.8278 22.8365 15.7278 22.9605 15.5278 23.1445C15.3358 23.3285 15.0758 23.5445 14.7478 23.7925C14.4198 24.0325 14.0518 24.2805 13.6438 24.5365C13.2358 24.7925 12.8118 25.0325 12.3718 25.2565C11.9398 25.4805 11.5198 25.6605 11.1118 25.7965C10.7118 25.9325 10.3518 26.0005 10.0318 26.0005C9.61577 26.0005 9.29177 25.8445 9.05977 25.5325C8.82777 25.2205 8.71177 24.7365 8.71177 24.0805C8.71177 23.6405 8.76777 23.1965 8.87977 22.7485C8.99977 22.3005 9.15977 21.8725 9.35977 21.4645C9.56777 21.0485 9.79577 20.6805 10.0438 20.3605C10.2998 20.0325 10.5678 19.7765 10.8478 19.5925C11.1278 19.4005 11.3998 19.3045 11.6638 19.3045C12.1678 19.3045 12.5638 19.4445 12.8518 19.7245C13.1398 20.0045 13.2838 20.3725 13.2838 20.8285ZM9.94777 22.8205C10.1958 22.6685 10.4518 22.5085 10.7158 22.3405C10.9798 22.1725 11.2238 22.0005 11.4478 21.8245C11.6718 21.6485 11.8518 21.4645 11.9878 21.2725C12.1318 21.0725 12.2038 20.8685 12.2038 20.6605C12.2038 20.3645 12.0438 20.2165 11.7238 20.2165C11.5238 20.2165 11.3118 20.3445 11.0878 20.6005C10.8718 20.8485 10.6638 21.1725 10.4638 21.5725C10.2638 21.9725 10.0918 22.3885 9.94777 22.8205ZM20.2261 26.5405C20.0501 26.5405 19.9141 26.4885 19.8181 26.3845C19.7221 26.2885 19.6741 26.0445 19.6741 25.6525C19.6741 25.2925 19.7381 24.8245 19.8661 24.2485C19.9941 23.6645 20.1661 23.0165 20.3821 22.3045C20.5981 21.5925 20.8421 20.8565 21.1141 20.0965C21.3861 19.3285 21.6701 18.5765 21.9661 17.8405C22.2701 17.0965 22.5621 16.4165 22.8421 15.8005C22.9461 15.5765 23.0541 15.4205 23.1661 15.3325C23.2781 15.2445 23.4101 15.2005 23.5621 15.2005C23.6661 15.2005 23.7541 15.2325 23.8261 15.2965C23.9061 15.3525 23.9461 15.4485 23.9461 15.5845C23.9461 15.6325 23.8941 15.7885 23.7901 16.0525C23.6941 16.3165 23.5581 16.6645 23.3821 17.0965C23.2141 17.5285 23.0261 18.0125 22.8181 18.5485C22.6101 19.0845 22.3981 19.6485 22.1821 20.2405C21.9661 20.8325 21.7621 21.4285 21.5701 22.0285C21.3781 22.6205 21.2141 23.1885 21.0781 23.7325C20.9421 24.2765 20.8501 24.7645 20.8021 25.1965C20.9941 24.9645 21.2141 24.6685 21.4621 24.3085C21.7101 23.9485 21.9741 23.5605 22.2541 23.1445C22.5341 22.7285 22.8181 22.3165 23.1061 21.9085C23.3941 21.5005 23.6781 21.1285 23.9581 20.7925C24.2381 20.4565 24.4981 20.1885 24.7381 19.9885C24.9861 19.7805 25.2021 19.6765 25.3861 19.6765C25.6901 19.6765 25.9341 19.7725 26.1181 19.9645C26.3101 20.1485 26.4061 20.4525 26.4061 20.8765C26.4061 21.1165 26.3581 21.4045 26.2621 21.7405C26.1741 22.0765 26.0701 22.4285 25.9501 22.7965C25.8301 23.1645 25.7221 23.5165 25.6261 23.8525C25.5381 24.1885 25.4941 24.4765 25.4941 24.7165C25.4941 25.0445 25.6181 25.2085 25.8661 25.2085C26.2501 25.2085 26.6341 25.1245 27.0181 24.9565C27.4101 24.7885 27.7821 24.5805 28.1341 24.3325C28.4861 24.0765 28.8101 23.8205 29.1061 23.5645C29.4021 23.3005 29.6541 23.0765 29.8621 22.8925C30.0861 22.6925 30.2741 22.5925 30.4261 22.5925C30.6181 22.5925 30.7141 22.6925 30.7141 22.8925C30.7141 22.9485 30.7021 23.0125 30.6781 23.0845C30.6541 23.1565 30.5901 23.2485 30.4861 23.3605C30.3581 23.5045 30.1741 23.6925 29.9341 23.9245C29.7021 24.1565 29.4301 24.4045 29.1181 24.6685C28.8141 24.9325 28.4821 25.1805 28.1221 25.4125C27.7701 25.6445 27.4061 25.8365 27.0301 25.9885C26.6621 26.1325 26.3021 26.2045 25.9501 26.2045C25.4701 26.2045 25.0981 26.0685 24.8341 25.7965C24.5781 25.5165 24.4501 25.1325 24.4501 24.6445C24.4501 24.3405 24.4981 23.9725 24.5941 23.5405C24.6901 23.1085 24.8101 22.6525 24.9541 22.1725C25.1061 21.6845 25.2581 21.2085 25.4101 20.7445C25.1541 20.9205 24.8741 21.1845 24.5701 21.5365C24.2741 21.8805 23.9621 22.2725 23.6341 22.7125C23.3061 23.1445 22.9781 23.5845 22.6501 24.0325C22.3301 24.4805 22.0181 24.8965 21.7141 25.2805C21.4181 25.6565 21.1421 25.9605 20.8861 26.1925C20.6301 26.4245 20.4101 26.5405 20.2261 26.5405ZM34.4075 20.8285C34.4075 21.0845 34.3275 21.3365 34.1675 21.5845C34.0075 21.8245 33.7955 22.0565 33.5315 22.2805C33.2675 22.4965 32.9755 22.7005 32.6555 22.8925C32.3355 23.0845 32.0155 23.2525 31.6955 23.3965C31.3755 23.5405 31.0835 23.6565 30.8195 23.7445C30.7555 24.0565 30.7235 24.3325 30.7235 24.5725C30.7235 24.7245 30.7595 24.8325 30.8315 24.8965C30.9035 24.9605 31.0155 24.9925 31.1675 24.9925C31.5035 24.9925 31.8595 24.9325 32.2355 24.8125C32.6115 24.6925 32.9955 24.5365 33.3875 24.3445C33.7795 24.1525 34.1555 23.9485 34.5155 23.7325C34.8755 23.5165 35.2035 23.3125 35.4995 23.1205C35.8035 22.9285 36.0555 22.7725 36.2555 22.6525C36.4555 22.5325 36.5875 22.4725 36.6515 22.4725C36.7475 22.4725 36.8195 22.5045 36.8675 22.5685C36.9235 22.6245 36.9515 22.6925 36.9515 22.7725C36.9515 22.8365 36.8515 22.9605 36.6515 23.1445C36.4595 23.3285 36.1995 23.5445 35.8715 23.7925C35.5435 24.0325 35.1755 24.2805 34.7675 24.5365C34.3595 24.7925 33.9355 25.0325 33.4955 25.2565C33.0635 25.4805 32.6435 25.6605 32.2355 25.7965C31.8355 25.9325 31.4755 26.0005 31.1555 26.0005C30.7395 26.0005 30.4155 25.8445 30.1835 25.5325C29.9515 25.2205 29.8355 24.7365 29.8355 24.0805C29.8355 23.6405 29.8915 23.1965 30.0035 22.7485C30.1235 22.3005 30.2835 21.8725 30.4835 21.4645C30.6915 21.0485 30.9195 20.6805 31.1675 20.3605C31.4235 20.0325 31.6915 19.7765 31.9715 19.5925C32.2515 19.4005 32.5235 19.3045 32.7875 19.3045C33.2915 19.3045 33.6875 19.4445 33.9755 19.7245C34.2635 20.0045 34.4075 20.3725 34.4075 20.8285ZM31.0715 22.8205C31.3195 22.6685 31.5755 22.5085 31.8395 22.3405C32.1035 22.1725 32.3475 22.0005 32.5715 21.8245C32.7955 21.6485 32.9755 21.4645 33.1115 21.2725C33.2555 21.0725 33.3275 20.8685 33.3275 20.6605C33.3275 20.3645 33.1675 20.2165 32.8475 20.2165C32.6475 20.2165 32.4355 20.3445 32.2115 20.6005C31.9955 20.8485 31.7875 21.1725 31.5875 21.5725C31.3875 21.9725 31.2155 22.3885 31.0715 22.8205ZM38.1195 26.4805C37.5035 26.4805 37.0195 26.2805 36.6675 25.8805C36.3235 25.4725 36.1515 24.9045 36.1515 24.1765C36.1515 23.7285 36.2115 23.2045 36.3315 22.6045C36.4595 21.9965 36.6195 21.3565 36.8115 20.6845C37.0115 20.0045 37.2275 19.3325 37.4595 18.6685C37.6915 18.0045 37.9155 17.3885 38.1315 16.8205C38.3555 16.2445 38.5515 15.7645 38.7195 15.3805C38.8155 15.1645 38.9515 15.0565 39.1275 15.0565C39.3675 15.0565 39.4875 15.2045 39.4875 15.5005C39.4875 15.5965 39.4435 15.7925 39.3555 16.0885C39.2675 16.3845 39.1515 16.7525 39.0075 17.1925C38.8635 17.6245 38.7075 18.1045 38.5395 18.6325C38.3715 19.1605 38.1995 19.7045 38.0235 20.2645C37.8555 20.8165 37.6995 21.3645 37.5555 21.9085C37.4115 22.4445 37.2955 22.9485 37.2075 23.4205C37.1195 23.8925 37.0755 24.2965 37.0755 24.6325C37.0755 24.8485 37.1315 25.0205 37.2435 25.1485C37.3635 25.2685 37.5235 25.3285 37.7235 25.3285C38.0915 25.3285 38.4595 25.2565 38.8275 25.1125C39.2035 24.9605 39.5635 24.7765 39.9075 24.5605C40.2515 24.3365 40.5635 24.1165 40.8435 23.9005C41.1315 23.6765 41.3755 23.4925 41.5755 23.3485C41.7755 23.1965 41.9155 23.1205 41.9955 23.1205C42.1715 23.1205 42.2595 23.2165 42.2595 23.4085C42.2595 23.4725 42.1955 23.5925 42.0675 23.7685C41.9395 23.9365 41.7675 24.1365 41.5515 24.3685C41.3355 24.6005 41.0835 24.8405 40.7955 25.0885C40.5155 25.3285 40.2195 25.5565 39.9075 25.7725C39.6035 25.9805 39.2955 26.1485 38.9835 26.2765C38.6795 26.4125 38.3915 26.4805 38.1195 26.4805ZM46.2556 20.8285C46.2556 21.0845 46.1756 21.3365 46.0156 21.5845C45.8556 21.8245 45.6436 22.0565 45.3796 22.2805C45.1156 22.4965 44.8236 22.7005 44.5036 22.8925C44.1836 23.0845 43.8636 23.2525 43.5436 23.3965C43.2236 23.5405 42.9316 23.6565 42.6676 23.7445C42.6036 24.0565 42.5716 24.3325 42.5716 24.5725C42.5716 24.7245 42.6076 24.8325 42.6796 24.8965C42.7516 24.9605 42.8636 24.9925 43.0156 24.9925C43.3516 24.9925 43.7076 24.9325 44.0836 24.8125C44.4596 24.6925 44.8436 24.5365 45.2356 24.3445C45.6276 24.1525 46.0036 23.9485 46.3636 23.7325C46.7236 23.5165 47.0516 23.3125 47.3476 23.1205C47.6516 22.9285 47.9036 22.7725 48.1036 22.6525C48.3036 22.5325 48.4356 22.4725 48.4996 22.4725C48.5956 22.4725 48.6676 22.5045 48.7156 22.5685C48.7716 22.6245 48.7996 22.6925 48.7996 22.7725C48.7996 22.8365 48.6996 22.9605 48.4996 23.1445C48.3076 23.3285 48.0476 23.5445 47.7196 23.7925C47.3916 24.0325 47.0236 24.2805 46.6156 24.5365C46.2076 24.7925 45.7836 25.0325 45.3436 25.2565C44.9116 25.4805 44.4916 25.6605 44.0836 25.7965C43.6836 25.9325 43.3236 26.0005 43.0036 26.0005C42.5876 26.0005 42.2636 25.8445 42.0316 25.5325C41.7996 25.2205 41.6836 24.7365 41.6836 24.0805C41.6836 23.6405 41.7396 23.1965 41.8516 22.7485C41.9716 22.3005 42.1316 21.8725 42.3316 21.4645C42.5396 21.0485 42.7676 20.6805 43.0156 20.3605C43.2716 20.0325 43.5396 19.7765 43.8196 19.5925C44.0996 19.4005 44.3716 19.3045 44.6356 19.3045C45.1396 19.3045 45.5356 19.4445 45.8236 19.7245C46.1116 20.0045 46.2556 20.3725 46.2556 20.8285ZM42.9196 22.8205C43.1676 22.6685 43.4236 22.5085 43.6876 22.3405C43.9516 22.1725 44.1956 22.0005 44.4196 21.8245C44.6436 21.6485 44.8236 21.4645 44.9596 21.2725C45.1036 21.0725 45.1756 20.8685 45.1756 20.6605C45.1756 20.3645 45.0156 20.2165 44.6956 20.2165C44.4956 20.2165 44.2836 20.3445 44.0596 20.6005C43.8436 20.8485 43.6356 21.1725 43.4356 21.5725C43.2356 21.9725 43.0636 22.3885 42.9196 22.8205ZM56.846 26.2885C56.71 26.2885 56.594 26.2285 56.498 26.1085C56.402 25.9885 56.354 25.8125 56.354 25.5805C56.354 25.3085 56.394 24.9205 56.474 24.4165C56.562 23.9125 56.69 23.2445 56.858 22.4125C56.642 22.9245 56.402 23.4085 56.138 23.8645C55.882 24.3205 55.61 24.6925 55.322 24.9805C55.034 25.2685 54.738 25.4125 54.434 25.4125C54.138 25.4125 53.874 25.2965 53.642 25.0645C53.418 24.8325 53.306 24.4245 53.306 23.8405C53.306 23.5125 53.334 23.1445 53.39 22.7365C53.446 22.3205 53.518 21.9085 53.606 21.5005C53.694 21.0925 53.782 20.7285 53.87 20.4085C53.958 20.0805 54.038 19.8405 54.11 19.6885C54.166 19.5605 54.222 19.4765 54.278 19.4365C54.334 19.3885 54.41 19.3645 54.506 19.3645C54.618 19.3645 54.738 19.4125 54.866 19.5085C54.994 19.6045 55.058 19.7645 55.058 19.9885C55.058 20.0445 55.03 20.1765 54.974 20.3845C54.926 20.5845 54.862 20.8325 54.782 21.1285C54.71 21.4165 54.634 21.7285 54.554 22.0645C54.474 22.4005 54.406 22.7365 54.35 23.0725C54.302 23.4085 54.278 23.7165 54.278 23.9965C54.278 24.1485 54.294 24.2725 54.326 24.3685C54.358 24.4645 54.438 24.5125 54.566 24.5125C54.678 24.5125 54.818 24.4005 54.986 24.1765C55.162 23.9525 55.35 23.6565 55.55 23.2885C55.758 22.9125 55.97 22.4965 56.186 22.0405C56.41 21.5845 56.626 21.1165 56.834 20.6365C57.05 20.1565 57.246 19.7005 57.422 19.2685C57.486 19.1245 57.554 19.0365 57.626 19.0045C57.698 18.9645 57.778 18.9445 57.866 18.9445C58.01 18.9445 58.138 19.0045 58.25 19.1245C58.37 19.2365 58.43 19.3845 58.43 19.5685C58.43 19.6885 58.406 19.8965 58.358 20.1925C58.318 20.4885 58.258 20.8365 58.178 21.2365C58.106 21.6285 58.022 22.0445 57.926 22.4845C57.838 22.9245 57.75 23.3605 57.662 23.7925C57.574 24.2165 57.49 24.6045 57.41 24.9565C57.338 25.3085 57.278 25.5925 57.23 25.8085C57.19 26.0085 57.134 26.1365 57.062 26.1925C56.998 26.2565 56.926 26.2885 56.846 26.2885ZM64.2889 19.9645C64.5049 19.4445 64.7089 18.9085 64.9009 18.3565C65.1009 17.8045 65.2809 17.2405 65.4409 16.6645C65.4889 16.5045 65.5609 16.3765 65.6569 16.2805C65.7609 16.1765 65.8809 16.1245 66.0169 16.1245C66.1129 16.1245 66.1929 16.1605 66.2569 16.2325C66.3289 16.3045 66.3649 16.4005 66.3649 16.5205C66.3649 16.6725 66.3049 16.9365 66.1849 17.3125C66.0729 17.6885 65.9289 18.1645 65.7529 18.7405C65.5849 19.3165 65.4129 19.9805 65.2369 20.7325C65.0689 21.4765 64.9249 22.3005 64.8049 23.2045C64.6929 24.1085 64.6369 25.0725 64.6369 26.0965C64.6369 26.3205 64.5889 26.5045 64.4929 26.6485C64.3969 26.8005 64.2809 26.8765 64.1449 26.8765C64.0649 26.8765 63.9889 26.8565 63.9169 26.8165C63.8449 26.7765 63.7809 26.6805 63.7249 26.5285C63.6769 26.3845 63.6369 26.1565 63.6049 25.8445C63.5729 25.5245 63.5569 25.0925 63.5569 24.5485C63.5569 24.1325 63.5809 23.6805 63.6289 23.1925C63.2609 23.8565 62.8609 24.4365 62.4289 24.9325C62.0049 25.4205 61.5929 25.7965 61.1929 26.0605C60.8009 26.3245 60.4649 26.4565 60.1849 26.4565C59.8409 26.4565 59.5609 26.3405 59.3449 26.1085C59.1369 25.8845 59.0329 25.5485 59.0329 25.1005C59.0329 24.7085 59.1249 24.3045 59.3089 23.8885C59.4929 23.4725 59.7369 23.0645 60.0409 22.6645C60.3449 22.2565 60.6809 21.8725 61.0489 21.5125C61.4169 21.1525 61.7849 20.8365 62.1529 20.5645C62.5289 20.2845 62.8769 20.0685 63.1969 19.9165C63.5169 19.7565 63.7769 19.6765 63.9769 19.6765C64.0569 19.6765 64.1289 19.7045 64.1929 19.7605C64.2569 19.8165 64.2889 19.8845 64.2889 19.9645ZM64.1329 20.3365C64.0769 20.3925 64.0089 20.4485 63.9289 20.5045C63.8489 20.5605 63.7609 20.6205 63.6649 20.6845C63.3129 20.9325 62.9249 21.2205 62.5009 21.5485C62.0849 21.8685 61.6849 22.2205 61.3009 22.6045C60.9249 22.9805 60.6169 23.3765 60.3769 23.7925C60.1369 24.2085 60.0169 24.6365 60.0169 25.0765C60.0169 25.2685 60.1129 25.3645 60.3049 25.3645C60.5689 25.3645 60.8569 25.2405 61.1689 24.9925C61.4889 24.7365 61.8169 24.3845 62.1529 23.9365C62.4889 23.4805 62.8249 22.9485 63.1609 22.3405C63.4969 21.7245 63.8209 21.0565 64.1329 20.3365ZM68.3212 25.7005C68.2012 25.7005 68.0812 25.6125 67.9612 25.4365C67.8492 25.2605 67.7652 25.0125 67.7092 24.6925C67.6532 24.3565 67.6012 23.9725 67.5532 23.5405C67.5052 23.1085 67.4652 22.6845 67.4332 22.2685C67.4012 21.8525 67.3772 21.4845 67.3612 21.1645C67.3452 20.8445 67.3372 20.6285 67.3372 20.5165C67.3372 20.1005 67.4012 19.7925 67.5292 19.5925C67.6652 19.3845 67.8372 19.2805 68.0452 19.2805C68.1892 19.2805 68.2932 19.3205 68.3572 19.4005C68.4212 19.4725 68.4532 19.6405 68.4532 19.9045C68.4532 20.0805 68.4572 20.3085 68.4652 20.5885C68.4732 20.8685 68.4852 21.1725 68.5012 21.5005C68.5172 21.8925 68.5332 22.3085 68.5492 22.7485C68.5652 23.1805 68.5772 23.6085 68.5852 24.0325C68.7772 23.7125 68.9972 23.3565 69.2452 22.9645C69.5012 22.5725 69.7612 22.1725 70.0252 21.7645C70.2892 21.3485 70.5452 20.9525 70.7932 20.5765C71.0412 20.2005 71.2612 19.8725 71.4532 19.5925C71.6452 19.3125 71.7932 19.1085 71.8972 18.9805C72.0332 18.8205 72.1572 18.7085 72.2692 18.6445C72.3892 18.5805 72.4932 18.5485 72.5812 18.5485C72.7012 18.5485 72.7972 18.5925 72.8692 18.6805C72.9492 18.7685 72.9892 18.8925 72.9892 19.0525C72.9892 19.1485 72.9692 19.2565 72.9292 19.3765C72.8972 19.4885 72.8372 19.6045 72.7492 19.7245C72.5332 20.0525 72.2732 20.4365 71.9692 20.8765C71.6652 21.3165 71.3492 21.7725 71.0212 22.2445C70.6932 22.7165 70.3732 23.1765 70.0612 23.6245C69.7492 24.0645 69.4772 24.4525 69.2452 24.7885C68.8372 25.3965 68.5292 25.7005 68.3212 25.7005ZM73.4318 26.3125C73.1278 26.3125 72.8758 26.1725 72.6758 25.8925C72.4838 25.6045 72.3878 25.2325 72.3878 24.7765C72.3878 24.3525 72.4918 23.9325 72.6998 23.5165C72.9158 23.1005 73.1998 22.7005 73.5518 22.3165C73.9038 21.9325 74.2878 21.5805 74.7038 21.2605C75.1198 20.9325 75.5358 20.6485 75.9518 20.4085C76.3758 20.1685 76.7638 19.9805 77.1158 19.8445C77.4678 19.7085 77.7478 19.6405 77.9558 19.6405C78.0678 19.6405 78.1598 19.6645 78.2318 19.7125C78.3038 19.7525 78.3398 19.8285 78.3398 19.9405C78.3398 20.0125 78.3118 20.0805 78.2558 20.1445C78.2638 20.1445 78.2718 20.1445 78.2798 20.1445C78.4558 20.1445 78.5438 20.2485 78.5438 20.4565C78.5438 20.5285 78.5158 20.6765 78.4598 20.9005C78.4038 21.1165 78.3398 21.3885 78.2678 21.7165C78.1958 22.0445 78.1318 22.4085 78.0758 22.8085C78.0198 23.2005 77.9918 23.6005 77.9918 24.0085C77.9918 24.3525 78.1238 24.5245 78.3878 24.5245C78.6838 24.5245 78.9838 24.4565 79.2878 24.3205C79.5918 24.1845 79.8878 24.0205 80.1758 23.8285C80.4638 23.6285 80.7278 23.4325 80.9678 23.2405C81.2078 23.0405 81.4118 22.8725 81.5798 22.7365C81.7478 22.6005 81.8678 22.5325 81.9398 22.5325C82.0038 22.5325 82.0598 22.5525 82.1078 22.5925C82.1558 22.6325 82.1798 22.6965 82.1798 22.7845C82.1798 22.8645 82.0998 23.0085 81.9398 23.2165C81.7798 23.4245 81.5678 23.6605 81.3038 23.9245C81.0398 24.1885 80.7438 24.4445 80.4158 24.6925C80.0878 24.9405 79.7518 25.1445 79.4078 25.3045C79.0638 25.4645 78.7358 25.5445 78.4238 25.5445C78.1838 25.5445 77.9638 25.4725 77.7638 25.3285C77.5718 25.1765 77.4158 24.9205 77.2958 24.5605C77.1838 24.2005 77.1278 23.7045 77.1278 23.0725V22.7725C76.7358 23.4205 76.3238 24.0125 75.8918 24.5485C75.4678 25.0845 75.0438 25.5125 74.6198 25.8325C74.2038 26.1525 73.8078 26.3125 73.4318 26.3125ZM77.7278 20.5045C77.6878 20.5205 77.6318 20.5445 77.5598 20.5765C77.1918 20.7445 76.8078 20.9525 76.4078 21.2005C76.0158 21.4485 75.6318 21.7245 75.2558 22.0285C74.8878 22.3325 74.5558 22.6485 74.2598 22.9765C73.9638 23.3045 73.7278 23.6365 73.5518 23.9725C73.3758 24.3085 73.2878 24.6365 73.2878 24.9565C73.2878 25.0605 73.3078 25.1405 73.3478 25.1965C73.3958 25.2525 73.4758 25.2805 73.5878 25.2805C73.7478 25.2805 73.9558 25.1805 74.2118 24.9805C74.4678 24.7725 74.7478 24.5005 75.0518 24.1645C75.3638 23.8285 75.6758 23.4565 75.9878 23.0485C76.2998 22.6405 76.5958 22.2285 76.8758 21.8125C77.1638 21.3965 77.4118 21.0125 77.6198 20.6605C77.6518 20.6045 77.6878 20.5525 77.7278 20.5045ZM83.3849 26.4805C82.7689 26.4805 82.2849 26.2805 81.9329 25.8805C81.5889 25.4725 81.4169 24.9045 81.4169 24.1765C81.4169 23.7285 81.4769 23.2045 81.5969 22.6045C81.7249 21.9965 81.8849 21.3565 82.0769 20.6845C82.2769 20.0045 82.4929 19.3325 82.7249 18.6685C82.9569 18.0045 83.1809 17.3885 83.3969 16.8205C83.6209 16.2445 83.8169 15.7645 83.9849 15.3805C84.0809 15.1645 84.2169 15.0565 84.3929 15.0565C84.6329 15.0565 84.7529 15.2045 84.7529 15.5005C84.7529 15.5965 84.7089 15.7925 84.6209 16.0885C84.5329 16.3845 84.4169 16.7525 84.2729 17.1925C84.1289 17.6245 83.9729 18.1045 83.8049 18.6325C83.6369 19.1605 83.4649 19.7045 83.2889 20.2645C83.1209 20.8165 82.9649 21.3645 82.8209 21.9085C82.6769 22.4445 82.5609 22.9485 82.4729 23.4205C82.3849 23.8925 82.3409 24.2965 82.3409 24.6325C82.3409 24.8485 82.3969 25.0205 82.5089 25.1485C82.6289 25.2685 82.7889 25.3285 82.9889 25.3285C83.3569 25.3285 83.7249 25.2565 84.0929 25.1125C84.4689 24.9605 84.8289 24.7765 85.1729 24.5605C85.5169 24.3365 85.8289 24.1165 86.1089 23.9005C86.3969 23.6765 86.6409 23.4925 86.8409 23.3485C87.0409 23.1965 87.1809 23.1205 87.2609 23.1205C87.4369 23.1205 87.5249 23.2165 87.5249 23.4085C87.5249 23.4725 87.4609 23.5925 87.3329 23.7685C87.2049 23.9365 87.0329 24.1365 86.8169 24.3685C86.6009 24.6005 86.3489 24.8405 86.0609 25.0885C85.7809 25.3285 85.4849 25.5565 85.1729 25.7725C84.8689 25.9805 84.5609 26.1485 84.2489 26.2765C83.9449 26.4125 83.6569 26.4805 83.3849 26.4805ZM87.3569 29.1685C86.7409 29.1685 86.2889 29.1085 86.0009 28.9885C85.7129 28.8685 85.5689 28.7085 85.5689 28.5085C85.5689 28.3805 85.6089 28.2765 85.6889 28.1965C85.7769 28.1165 85.8849 28.0765 86.0129 28.0765C86.1489 28.0765 86.3449 28.0965 86.6009 28.1365C86.8569 28.1845 87.1089 28.2085 87.3569 28.2085C88.1809 28.2085 88.8569 27.9645 89.3849 27.4765C89.9129 26.9885 90.3169 26.2405 90.5969 25.2325C90.8769 24.2165 91.0649 22.9205 91.1609 21.3445C90.9209 21.8325 90.6489 22.3205 90.3449 22.8085C90.0489 23.2885 89.7289 23.7285 89.3849 24.1285C89.0489 24.5205 88.7009 24.8365 88.3409 25.0765C87.9809 25.3165 87.6249 25.4365 87.2729 25.4365C86.9369 25.4365 86.6889 25.3525 86.5289 25.1845C86.3769 25.0165 86.3009 24.7405 86.3009 24.3565C86.3009 24.0125 86.3969 23.6485 86.5889 23.2645C86.7809 22.8725 87.0369 22.4805 87.3569 22.0885C87.6769 21.6965 88.0289 21.3245 88.4129 20.9725C88.7969 20.6125 89.1809 20.2965 89.5649 20.0245C89.9569 19.7445 90.3209 19.5245 90.6569 19.3645C90.9929 19.2045 91.2649 19.1245 91.4729 19.1245C91.6809 19.1245 91.8409 19.1965 91.9529 19.3405C92.0649 19.4845 92.1209 19.7565 92.1209 20.1565C92.1209 21.0925 92.0889 22.0045 92.0249 22.8925C91.9689 23.7725 91.8529 24.5925 91.6769 25.3525C91.5009 26.1125 91.2369 26.7765 90.8849 27.3445C90.5409 27.9205 90.0809 28.3685 89.5049 28.6885C88.9289 29.0085 88.2129 29.1685 87.3569 29.1685ZM90.9449 20.1685C90.5449 20.4245 90.1329 20.7125 89.7089 21.0325C89.2849 21.3525 88.8889 21.6925 88.5209 22.0525C88.1609 22.4125 87.8689 22.7845 87.6449 23.1685C87.4209 23.5525 87.3089 23.9365 87.3089 24.3205C87.3089 24.4405 87.3849 24.5005 87.5369 24.5005C87.6569 24.5005 87.8209 24.4085 88.0289 24.2245C88.2449 24.0325 88.4849 23.7805 88.7489 23.4685C89.0129 23.1485 89.2809 22.8005 89.5529 22.4245C89.8329 22.0405 90.0929 21.6525 90.3329 21.2605C90.5729 20.8685 90.7769 20.5045 90.9449 20.1685ZM108.733 20.4325C108.733 20.5285 108.593 20.6365 108.313 20.7565C108.041 20.8765 107.673 21.0005 107.209 21.1285C106.745 21.2485 106.225 21.3685 105.649 21.4885C105.081 21.6085 104.497 21.7165 103.897 21.8125C103.681 22.5565 103.469 23.3085 103.261 24.0685C103.053 24.8205 102.873 25.5285 102.721 26.1925C102.689 26.3205 102.625 26.4125 102.529 26.4685C102.441 26.5325 102.341 26.5645 102.229 26.5645C102.101 26.5645 101.993 26.5285 101.905 26.4565C101.817 26.3925 101.773 26.3045 101.773 26.1925C101.773 25.9925 101.813 25.7045 101.893 25.3285C101.973 24.9525 102.077 24.5165 102.205 24.0205C102.341 23.5245 102.481 22.9965 102.625 22.4365C102.273 22.9805 101.885 23.4925 101.461 23.9725C101.037 24.4525 100.593 24.8765 100.129 25.2445C99.6647 25.6125 99.1887 25.9005 98.7007 26.1085C98.2207 26.3165 97.7367 26.4205 97.2487 26.4205C96.4887 26.4205 95.9327 26.2205 95.5807 25.8205C95.2287 25.4205 95.0527 24.8205 95.0527 24.0205C95.0527 23.5725 95.1047 23.1245 95.2087 22.6765C95.3207 22.2205 95.4687 21.7885 95.6527 21.3805C95.8447 20.9725 96.0567 20.6125 96.2887 20.3005C96.5207 19.9805 96.7607 19.7285 97.0087 19.5445C97.2647 19.3605 97.5087 19.2685 97.7407 19.2685C98.1887 19.2685 98.5207 19.3925 98.7367 19.6405C98.9527 19.8885 99.0607 20.1965 99.0607 20.5645C99.0607 20.9485 98.9727 21.3125 98.7967 21.6565C98.6207 22.0005 98.3847 22.3125 98.0887 22.5925C97.7927 22.8725 97.4687 23.1125 97.1167 23.3125C96.7647 23.5045 96.4167 23.6365 96.0727 23.7085C96.0647 23.7805 96.0607 23.8525 96.0607 23.9245C96.0607 24.4925 96.1647 24.8845 96.3727 25.1005C96.5887 25.3085 96.9287 25.4125 97.3927 25.4125C97.8407 25.4125 98.3127 25.2765 98.8087 25.0045C99.3127 24.7325 99.8167 24.3485 100.321 23.8525C100.833 23.3565 101.321 22.7765 101.785 22.1125C101.441 22.1525 101.121 22.1845 100.825 22.2085C100.537 22.2245 100.285 22.2325 100.069 22.2325C99.8447 22.2325 99.6887 22.2005 99.6007 22.1365C99.5207 22.0725 99.4807 21.9645 99.4807 21.8125C99.4807 21.7485 99.5207 21.6685 99.6007 21.5725C99.6887 21.4765 99.7847 21.4245 99.8887 21.4165C100.353 21.3765 100.793 21.3325 101.209 21.2845C101.633 21.2365 102.037 21.1845 102.421 21.1285C102.629 20.7765 102.829 20.4085 103.021 20.0245C103.213 19.6325 103.393 19.2325 103.561 18.8245C103.713 18.2885 103.865 17.8085 104.017 17.3845C104.177 16.9605 104.341 16.6285 104.509 16.3885C104.685 16.1405 104.869 16.0165 105.061 16.0165C105.149 16.0165 105.225 16.0565 105.289 16.1365C105.361 16.2165 105.397 16.3285 105.397 16.4725C105.397 16.5765 105.341 16.8405 105.229 17.2645C105.117 17.6805 104.965 18.2045 104.773 18.8365C104.589 19.4605 104.389 20.1405 104.173 20.8765C105.437 20.6765 106.413 20.4965 107.101 20.3365C107.789 20.1765 108.225 20.0965 108.409 20.0965C108.513 20.0965 108.593 20.1325 108.649 20.2045C108.705 20.2685 108.733 20.3445 108.733 20.4325ZM96.2047 22.8085C96.5167 22.6405 96.8167 22.4245 97.1047 22.1605C97.3927 21.8965 97.6287 21.6205 97.8127 21.3325C98.0047 21.0445 98.1007 20.7765 98.1007 20.5285C98.1007 20.3045 97.9967 20.1925 97.7887 20.1925C97.6207 20.1925 97.4327 20.3205 97.2247 20.5765C97.0247 20.8245 96.8327 21.1485 96.6487 21.5485C96.4647 21.9485 96.3167 22.3685 96.2047 22.8085ZM108.038 23.0365C107.966 23.0365 107.902 23.0005 107.846 22.9285C107.798 22.8485 107.774 22.7445 107.774 22.6165C107.774 22.4405 107.806 22.1645 107.87 21.7885C107.942 21.4045 108.034 20.9605 108.146 20.4565C108.266 19.9445 108.402 19.4125 108.554 18.8605C108.714 18.3085 108.882 17.7685 109.058 17.2405C109.234 16.7045 109.41 16.2285 109.586 15.8125C109.706 15.5325 109.854 15.3925 110.03 15.3925C110.214 15.3925 110.382 15.4805 110.534 15.6565C110.686 15.8325 110.762 16.0485 110.762 16.3045C110.762 16.4005 110.714 16.5805 110.618 16.8445C110.53 17.1085 110.41 17.4285 110.258 17.8045C110.114 18.1805 109.954 18.5845 109.778 19.0165C109.602 19.4485 109.422 19.8885 109.238 20.3365C109.062 20.7765 108.898 21.1925 108.746 21.5845C108.594 21.9765 108.474 22.3165 108.386 22.6045C108.33 22.7805 108.278 22.8965 108.23 22.9525C108.182 23.0085 108.118 23.0365 108.038 23.0365ZM107.33 26.6125C107.21 26.6125 107.086 26.5445 106.958 26.4085C106.83 26.2725 106.766 25.9965 106.766 25.5805C106.766 25.3485 106.842 25.1765 106.994 25.0645C107.146 24.9445 107.342 24.8845 107.582 24.8845C107.99 24.8845 108.194 25.0965 108.194 25.5205C108.194 25.7205 108.146 25.9005 108.05 26.0605C107.954 26.2285 107.838 26.3605 107.702 26.4565C107.574 26.5605 107.45 26.6125 107.33 26.6125Z" fill="black"/>
</svg>
