<svg width="18" height="13" viewBox="0 0 18 13" fill="none" xmlns="http://www.w3.org/2000/svg">
<path d="M1.14917 5.75C0.734956 5.75 0.39917 6.08579 0.39917 6.5C0.39917 6.91421 0.734956 7.25 1.14917 7.25L1.14917 5.75ZM17.6795 7.03033C17.9724 6.73744 17.9724 6.26256 17.6795 5.96967L12.9065 1.1967C12.6136 0.903807 12.1388 0.903807 11.8459 1.1967C11.553 1.48959 11.553 1.96447 11.8459 2.25736L16.0885 6.5L11.8459 10.7426C11.553 11.0355 11.553 11.5104 11.8459 11.8033C12.1388 12.0962 12.6136 12.0962 12.9065 11.8033L17.6795 7.03033ZM1.14917 7.25L17.1492 7.25L17.1492 5.75L1.14917 5.75L1.14917 7.25Z" fill="#ff9337"/>
</svg>
