<svg xmlns="http://www.w3.org/2000/svg" xmlns:xlink="http://www.w3.org/1999/xlink" width="18" height="18" viewBox="0 0 18 18">
  <defs>
    <clipPath id="clip-path">
      <rect id="Rectangle_1" data-name="Rectangle 1" width="18" height="18"/>
    </clipPath>
  </defs>
  <g id="mini-logo" clip-path="url(#clip-path)">
    <g id="Morningtrain" clip-path="url(#clip-path)">
      <g id="Group_4" data-name="Group 4" transform="translate(4.505 0.175)">
        <path id="Path_4264" d="M-216.7-45.7a4.279,4.279,0,0,1,4.365,4.185v.118a4.15,4.15,0,0,1-1.3,3.008,4.283,4.283,0,0,1-3.067,1.3,4.113,4.113,0,0,1-2.713-.945,4.081,4.081,0,0,1-1.592-3.6,4.362,4.362,0,0,1,1.3-2.831A4.1,4.1,0,0,1-216.7-45.7Zm0,1.769a2.011,2.011,0,0,0-1.651.765,2.565,2.565,0,0,0,0,3.538,2.194,2.194,0,0,0,1.567.744,2.194,2.194,0,0,0,1.618-.626l.118-.118a2.565,2.565,0,0,0,0-3.538A2.194,2.194,0,0,0-216.7-43.932Z" transform="translate(221.023 45.702)" fill="#ff9333"/>
        <path id="Path_4265" d="M-216.7-30.2a4.279,4.279,0,0,1,4.365,4.185v.118a4.15,4.15,0,0,1-1.3,3.008,4.283,4.283,0,0,1-3.067,1.3,4.113,4.113,0,0,1-2.713-.945,4.081,4.081,0,0,1-1.592-3.6,4.362,4.362,0,0,1,1.3-2.831A4.1,4.1,0,0,1-216.7-30.2Zm0,1.769a2.011,2.011,0,0,0-1.651.765,2.565,2.565,0,0,0,0,3.538,2.194,2.194,0,0,0,1.567.744,2.194,2.194,0,0,0,1.618-.626l.118-.118a2.565,2.565,0,0,0,0-3.538,2.194,2.194,0,0,0-1.651-.765Z" transform="translate(221.023 39.343)" fill="#ff9333"/>
      </g>
    </g>
  </g>
</svg>
