<svg width="13" height="25" viewBox="0 0 13 25" fill="none" xmlns="http://www.w3.org/2000/svg">
<g id="Frame 24445">
<path id="Path_17464" d="M6.30708 0.00122667C4.65389 -0.02369 3.06958 0.607533 1.91579 1.74539C0.796441 2.80851 0.124836 4.22045 0.0215112 5.73206C-0.150696 7.69218 0.718948 9.60246 2.34631 10.7985C3.45704 11.6872 4.86054 12.1606 6.30708 12.1273C7.99471 12.1273 9.60485 11.4629 10.7845 10.3001C11.9899 9.19549 12.6787 7.66726 12.6787 6.06429V5.89818C12.6012 2.57595 9.75122 -0.0652178 6.30708 0.00122667ZM8.71798 8.55596L8.54577 8.72207C7.28005 9.91807 5.25661 9.90146 4.01672 8.68054C3.97367 8.63901 3.93923 8.59748 3.89617 8.55596C2.51852 7.16062 2.51852 4.96795 3.89617 3.57262C4.47307 2.85834 5.36855 2.45967 6.30708 2.4929C7.237 2.4929 8.11525 2.89156 8.71798 3.57262C10.0956 4.96795 10.0956 7.16062 8.71798 8.55596Z" fill="black"/>
<path id="Path_17465" d="M6.3072 12.8743C4.65401 12.8494 3.0697 13.4806 1.91591 14.6184C0.796563 15.6816 0.124957 17.0935 0.0216327 18.6051C-0.185016 21.9273 2.43253 24.7844 5.88529 24.9921C6.02305 24.9921 6.16943 25.0004 6.3072 25.0004C7.99483 25.0004 9.60497 24.3359 10.7846 23.1732C11.99 22.0685 12.6789 20.5403 12.6789 18.9373V18.7712C12.6014 15.449 9.75135 12.8078 6.3072 12.8743ZM8.7181 21.429L8.54589 21.5951C7.28017 22.7911 5.25673 22.7745 4.01684 21.5536C3.97379 21.5121 3.93935 21.4705 3.8963 21.429C2.51864 20.0337 2.51864 17.841 3.8963 16.4457C4.47319 15.7314 5.36867 15.3327 6.3072 15.3659C7.23712 15.3659 8.11537 15.7646 8.7181 16.4457C10.0958 17.841 10.0958 20.0337 8.7181 21.429Z" fill="black"/>
</g>
</svg>
